# xmcd
#
# Track frame offsets: 
#        150
#        21452
#        34157
#        50961
#        78689
#        93971
#        115984
#        131759
#        148189
#        164861
#        175405
#        187656
#        199048
#        223027
#        252930
#        269008
#        297888
#
# Disc length: 4185 seconds
#
# Revision: 0
# Processed by: cddbd v1.4PL0 Copyright (c) Steve Scherf et al.
# Submitted via: ExactAudioCopy v0.90b4
#
DISCID=13105711
DTITLE=Van Morrison - Mejeriet, Lund 1992
DYEAR=1992
DGENRE=Celtic
TTITLE0=Some Peace Of Mind
TTITLE1=Ordinary Life
TTITLE2=Route 66
TTITLE3=I'm Not Feeling It Anymore
TTITLE4=Why Must I Always Explain ?
TTITLE5=Irish Heartbeat
TTITLE6=Youth Of 1000 Summers
TTITLE7=I Can't Stop Loving You
TTITLE8=Cleaning Windows
TTITLE9=Whole Lotta Shakin' Goin' On > Be Bop A Lula
TTITLE10=By His Grace
TTITLE11=All Saints Day
TTITLE12=A Town Called Paradise
TTITLE13=Vanlose Stairway
TTITLE14=Whenever God Shines His Light
TTITLE15=Did Ye Get Healed ?
TTITLE16=Enlightenment
EXTD=
EXTT0=
EXTT1=
EXTT2=
EXTT3=
EXTT4=
EXTT5=
EXTT6=
EXTT7=
EXTT8=
EXTT9=
EXTT10=
EXTT11=
EXTT12=
EXTT13=
EXTT14=
EXTT15=
EXTT16=
PLAYORDER=
